<svg class="h-6 w-6 text-white" fill="none" viewBox="0 0 24 24" stroke="white" xmlns="http://www.w3.org/2000/svg" version="1.1" xmlns:xlink="http://www.w3.org/1999/xlink">
  <path d="M4.26 10.147a60 60 0 0 0-.491 6.347A48.6 48.6 0 0 1 12 20.904a48.6 48.6 0 0 1 8.232-4.41 61 61 0 0 0-.491-6.347m-15.482 0a51 51 0 0 0-2.658-.813A60 60 0 0 1 12 3.493a60 60 0 0 1 10.399 5.84 51 51 0 0 0-2.658.814m-15.482 0A51 51 0 0 1 12 13.489a50.7 50.7 0 0 1 7.74-3.342M6.75 15a.75.75 0 1 0 0-1.5.75.75 0 0 0 0 1.5Zm0 0v-3.675A55 55 0 0 1 12 8.443m-7.007 11.55A5.98 5.98 0 0 0 6.75 15.75v-1.5"></path>
</svg>